<svg xmlns="http://www.w3.org/2000/svg" viewBox="0 0 400 200">
  <ellipse cx="200" cy="172" rx="140" ry="10" fill="#e0dad3"/>
  <path d="M55 140 Q55 105 100 100 L128 68 Q150 56 190 56 L250 62 Q290 68 300 100 L332 108 Q350 112 350 130 L350 140 Z" fill="#0b6971" stroke="#241b16" stroke-width="4" stroke-linejoin="round"/>
  <path d="M140 96 L162 70 Q178 62 198 62 L235 68 Q250 74 262 96 Z" fill="#e9ebee" stroke="#241b16" stroke-width="3" stroke-linejoin="round"/>
  <line x1="198" y1="64" x2="198" y2="96" stroke="#241b16" stroke-width="3"/>
  <circle cx="120" cy="140" r="26" fill="#241b16"/>
  <circle cx="120" cy="140" r="11" fill="#e9ebee"/>
  <circle cx="290" cy="140" r="26" fill="#241b16"/>
  <circle cx="290" cy="140" r="11" fill="#e9ebee"/>
  <circle cx="343" cy="122" r="6" fill="#fff8ef" stroke="#241b16" stroke-width="2"/>
  <circle cx="60" cy="130" r="6" fill="#fff8ef" stroke="#241b16" stroke-width="2"/>
  <line x1="190" y1="104" x2="330" y2="110" stroke="#241b16" stroke-width="2" opacity="0.5"/>
</svg>
